<svg xmlns="http://www.w3.org/2000/svg" width="500" height="500" viewBox="0 0 500 500"><line x1="30" x2="470" y1="65.86666666666667" y2="65.86666666666667" stroke="#eeeeee" stroke-width="3" stroke-linecap="round" opacity="1"/><text x="20" y="65.86666666666667" text-anchor="end" dominant-baseline="middle" font-family="Arial" font-size="12" fill="lightgray" opacity="1">1</text><line x1="30" x2="470" y1="69.16333333333333" y2="69.16333333333333" stroke="#eeeeee" stroke-width="3" stroke-linecap="round" opacity="1"/><text x="20" y="69.16333333333333" text-anchor="end" dominant-baseline="middle" font-family="Arial" font-size="12" fill="lightgray" opacity="1">2</text><line x1="30" x2="470" y1="127.5" y2="127.5" stroke="#eeeeee" stroke-width="3" stroke-linecap="round" opacity="0.744"/><text x="20" y="127.5" text-anchor="end" dominant-baseline="middle" font-family="Arial" font-size="12" fill="lightgray" opacity="0.744">18</text><line x1="30" x2="470" y1="181.25" y2="181.25" stroke="#eeeeee" stroke-width="3" stroke-linecap="round" opacity="0.744"/><text x="20" y="181.25" text-anchor="end" dominant-baseline="middle" font-family="Arial" font-size="12" fill="lightgray" opacity="0.744">20</text><line x1="30" x2="470" y1="262.52" y2="262.52" stroke="#eeeeee" stroke-width="3" stroke-linecap="round" opacity="1"/><text x="20" y="262.52" text-anchor="end" dominant-baseline="middle" font-family="Arial" font-size="12" fill="lightgray" opacity="1">23</text><line x1="30" x2="470" y1="288.75" y2="288.75" stroke="#eeeeee" stroke-width="3" stroke-linecap="round" opacity="0.744"/><text x="20" y="288.75" text-anchor="end" dominant-baseline="middle" font-family="Arial" font-size="12" fill="lightgray" opacity="0.744">24</text><line x1="30" x2="470" y1="287.46" y2="287.46" stroke="#eeeeee" stroke-width="3" stroke-linecap="round" opacity="1"/><text x="20" y="287.46" text-anchor="end" dominant-baseline="middle" font-family="Arial" font-size="12" fill="lightgray" opacity="1">25</text><line x1="30" x2="470" y1="396.25" y2="396.25" stroke="#eeeeee" stroke-width="3" stroke-linecap="round" opacity="0.744"/><text x="20" y="396.25" text-anchor="end" dominant-baseline="middle" font-family="Arial" font-size="12" fill="lightgray" opacity="0.744">5</text><line x1="30" x2="470" y1="20" y2="20" stroke="#eeeeee" stroke-width="3" stroke-linecap="round" opacity="0.25600000000000006"/><text x="20" y="20" text-anchor="end" dominant-baseline="middle" font-family="Arial" font-size="12" fill="lightgray" opacity="0.25600000000000006">28</text><line x1="30" x2="470" y1="91.66666666666667" y2="91.66666666666667" stroke="#eeeeee" stroke-width="3" stroke-linecap="round" opacity="0.25600000000000006"/><text x="20" y="91.66666666666667" text-anchor="end" dominant-baseline="middle" font-family="Arial" font-size="12" fill="lightgray" opacity="0.25600000000000006">6</text><line x1="30" x2="470" y1="163.33333333333334" y2="163.33333333333334" stroke="#eeeeee" stroke-width="3" stroke-linecap="round" opacity="0.25600000000000006"/><text x="20" y="163.33333333333334" text-anchor="end" dominant-baseline="middle" font-family="Arial" font-size="12" fill="lightgray" opacity="0.25600000000000006">0</text><line x1="30" x2="470" y1="235" y2="235" stroke="#eeeeee" stroke-width="3" stroke-linecap="round" opacity="0.25600000000000006"/><text x="20" y="235" text-anchor="end" dominant-baseline="middle" font-family="Arial" font-size="12" fill="lightgray" opacity="0.25600000000000006">15</text><line x1="30" x2="470" y1="270.83333333333337" y2="270.83333333333337" stroke="#eeeeee" stroke-width="3" stroke-linecap="round" opacity="0.25600000000000006"/><text x="20" y="270.83333333333337" text-anchor="end" dominant-baseline="middle" font-family="Arial" font-size="12" fill="lightgray" opacity="0.25600000000000006">19</text><line x1="30" x2="470" y1="306.6666666666667" y2="306.6666666666667" stroke="#eeeeee" stroke-width="3" stroke-linecap="round" opacity="0.25600000000000006"/><text x="20" y="306.6666666666667" text-anchor="end" dominant-baseline="middle" font-family="Arial" font-size="12" fill="lightgray" opacity="0.25600000000000006">21</text><line x1="30" x2="470" y1="378.33333333333337" y2="378.33333333333337" stroke="#eeeeee" stroke-width="3" stroke-linecap="round" opacity="0.25600000000000006"/><text x="20" y="378.33333333333337" text-anchor="end" dominant-baseline="middle" font-family="Arial" font-size="12" fill="lightgray" opacity="0.25600000000000006">26</text><line x1="30" x2="470" y1="414.1666666666667" y2="414.1666666666667" stroke="#eeeeee" stroke-width="3" stroke-linecap="round" opacity="0.25600000000000006"/><text x="20" y="414.1666666666667" text-anchor="end" dominant-baseline="middle" font-family="Arial" font-size="12" fill="lightgray" opacity="0.25600000000000006">7</text><line x1="30" x2="30" y1="20" y2="73.75" stroke="#457e3e" stroke-width="8" stroke-linecap="round" opacity="0.744"/><line x1="30" x2="30" y1="20" y2="73.75" stroke="#77b26f" stroke-width="8" stroke-linecap="round" opacity="0.744"/><line x1="156.33" x2="156.33" y1="69.16333333333333" y2="65.86666666666667" stroke="#457e3e" stroke-width="8" stroke-linecap="round" opacity="1"/><line x1="156.33" x2="156.33" y1="69.16333333333333" y2="65.86666666666667" stroke="#77b26f" stroke-width="8" stroke-linecap="round" opacity="1"/><line x1="142.5" x2="142.5" y1="20" y2="127.5" stroke="#457e3e" stroke-width="8" stroke-linecap="round" opacity="0.744"/><line x1="142.5" x2="142.5" y1="20" y2="127.5" stroke="#77b26f" stroke-width="8" stroke-linecap="round" opacity="0.744"/><line x1="198.75" x2="198.75" y1="20" y2="181.25" stroke="#457e3e" stroke-width="8" stroke-linecap="round" opacity="0.744"/><line x1="198.75" x2="198.75" y1="20" y2="181.25" stroke="#77b26f" stroke-width="8" stroke-linecap="round" opacity="0.744"/><line x1="255" x2="255" y1="20" y2="288.75" stroke="#457e3e" stroke-width="8" stroke-linecap="round" opacity="0.744"/><line x1="255" x2="255" y1="20" y2="288.75" stroke="#77b26f" stroke-width="8" stroke-linecap="round" opacity="0.744"/><line x1="311.25" x2="311.25" y1="20" y2="396.25" stroke="#457e3e" stroke-width="8" stroke-linecap="round" opacity="0.744"/><line x1="311.25" x2="311.25" y1="20" y2="396.25" stroke="#77b26f" stroke-width="8" stroke-linecap="round" opacity="0.744"/><line x1="373.26" x2="373.26" y1="69.16333333333333" y2="262.52" stroke="#457e3e" stroke-width="8" stroke-linecap="round" opacity="1"/><line x1="373.26" x2="373.26" y1="69.16333333333333" y2="262.52" stroke="#77b26f" stroke-width="8" stroke-linecap="round" opacity="1"/><line x1="392.07" x2="392.07" y1="287.46" y2="69.16333333333333" stroke="#457e3e" stroke-width="8" stroke-linecap="round" opacity="1"/><line x1="392.07" x2="392.07" y1="287.46" y2="69.16333333333333" stroke="#77b26f" stroke-width="8" stroke-linecap="round" opacity="1"/><line x1="30" x2="30" y1="20" y2="55.833333333333336" stroke="#b99d38" stroke-width="8" stroke-linecap="round" opacity="0.25600000000000006"/><line x1="30" x2="30" y1="20" y2="55.833333333333336" stroke="#f0d369" stroke-width="8" stroke-linecap="round" opacity="0.25600000000000006"/><line x1="60" x2="60" y1="55.833333333333336" y2="20" stroke="#b99d38" stroke-width="8" stroke-linecap="round" opacity="0.25600000000000006"/><line x1="60" x2="60" y1="55.833333333333336" y2="20" stroke="#f0d369" stroke-width="8" stroke-linecap="round" opacity="0.25600000000000006"/><line x1="90" x2="90" y1="20" y2="91.66666666666667" stroke="#b99d38" stroke-width="8" stroke-linecap="round" opacity="0.25600000000000006"/><line x1="90" x2="90" y1="20" y2="91.66666666666667" stroke="#f0d369" stroke-width="8" stroke-linecap="round" opacity="0.25600000000000006"/><line x1="120" x2="120" y1="91.66666666666667" y2="20" stroke="#b99d38" stroke-width="8" stroke-linecap="round" opacity="0.25600000000000006"/><line x1="120" x2="120" y1="91.66666666666667" y2="20" stroke="#f0d369" stroke-width="8" stroke-linecap="round" opacity="0.25600000000000006"/><line x1="150" x2="150" y1="20" y2="163.33333333333334" stroke="#b99d38" stroke-width="8" stroke-linecap="round" opacity="0.25600000000000006"/><line x1="150" x2="150" y1="20" y2="163.33333333333334" stroke="#f0d369" stroke-width="8" stroke-linecap="round" opacity="0.25600000000000006"/><line x1="180" x2="180" y1="20" y2="235" stroke="#b99d38" stroke-width="8" stroke-linecap="round" opacity="0.25600000000000006"/><line x1="180" x2="180" y1="20" y2="235" stroke="#f0d369" stroke-width="8" stroke-linecap="round" opacity="0.25600000000000006"/><line x1="210" x2="210" y1="20" y2="378.33333333333337" stroke="#b99d38" stroke-width="8" stroke-linecap="round" opacity="0.25600000000000006"/><line x1="210" x2="210" y1="20" y2="378.33333333333337" stroke="#f0d369" stroke-width="8" stroke-linecap="round" opacity="0.25600000000000006"/><line x1="240" x2="240" y1="20" y2="414.1666666666667" stroke="#b99d38" stroke-width="8" stroke-linecap="round" opacity="0.25600000000000006"/><line x1="240" x2="240" y1="20" y2="414.1666666666667" stroke="#f0d369" stroke-width="8" stroke-linecap="round" opacity="0.25600000000000006"/><line x1="270" x2="270" y1="55.833333333333336" y2="91.66666666666667" stroke="#457e3e" stroke-width="8" stroke-linecap="round" opacity="0.25600000000000006"/><line x1="270" x2="270" y1="55.833333333333336" y2="91.66666666666667" stroke="#77b26f" stroke-width="8" stroke-linecap="round" opacity="0.25600000000000006"/><line x1="330" x2="330" y1="55.833333333333336" y2="127.5" stroke="#457e3e" stroke-width="8" stroke-linecap="round" opacity="0.25600000000000006"/><line x1="330" x2="330" y1="55.833333333333336" y2="127.5" stroke="#77b26f" stroke-width="8" stroke-linecap="round" opacity="0.25600000000000006"/><line x1="420" x2="420" y1="91.66666666666667" y2="270.83333333333337" stroke="#ccc" stroke-width="8" stroke-linecap="round" opacity="0.25600000000000006"/><line x1="450" x2="450" y1="91.66666666666667" y2="306.6666666666667" stroke="#ccc" stroke-width="8" stroke-linecap="round" opacity="0.25600000000000006"/><circle cx="30" cy="475" r="8" fill="steelblue" opacity="0.744"/><circle cx="156.33" cy="475" r="8" fill="steelblue" opacity="0.744"/><circle cx="142.5" cy="475" r="8" fill="steelblue" opacity="0.744"/><circle cx="198.75" cy="475" r="8" fill="steelblue" opacity="0.744"/><circle cx="255" cy="475" r="8" fill="steelblue" opacity="0.744"/><circle cx="311.25" cy="475" r="8" fill="steelblue" opacity="0.744"/><circle cx="373.26" cy="475" r="8" fill="steelblue" opacity="0.744"/><circle cx="392.07" cy="475" r="8" fill="steelblue" opacity="0.744"/><circle cx="30" cy="475" r="8" fill="steelblue" opacity="0.25600000000000006"/><circle cx="60" cy="475" r="8" fill="steelblue" opacity="0.25600000000000006"/><circle cx="90" cy="475" r="8" fill="steelblue" opacity="0.25600000000000006"/><circle cx="120" cy="475" r="8" fill="steelblue" opacity="0.25600000000000006"/><circle cx="150" cy="475" r="8" fill="steelblue" opacity="0.25600000000000006"/><circle cx="180" cy="475" r="8" fill="steelblue" opacity="0.25600000000000006"/><circle cx="210" cy="475" r="8" fill="steelblue" opacity="0.25600000000000006"/><circle cx="240" cy="475" r="8" fill="steelblue" opacity="0.25600000000000006"/><circle cx="270" cy="475" r="8" fill="steelblue" opacity="0.25600000000000006"/><circle cx="330" cy="475" r="8" fill="steelblue" opacity="0.25600000000000006"/><circle cx="420" cy="475" r="8" fill="steelblue" opacity="0.25600000000000006"/><circle cx="450" cy="475" r="8" fill="steelblue" opacity="0.25600000000000006"/></svg>