<svg xmlns="http://www.w3.org/2000/svg" width="500" height="500" viewBox="0 0 500 500"><line x1="30" x2="470" y1="20" y2="20" stroke="#eeeeee" stroke-width="3" stroke-linecap="round" opacity="1"/><text x="20" y="20" text-anchor="end" dominant-baseline="middle" font-family="Arial" font-size="12" fill="lightgray" opacity="1">0</text><line x1="30" x2="470" y1="63" y2="63" stroke="#eeeeee" stroke-width="3" stroke-linecap="round" opacity="1"/><text x="20" y="63" text-anchor="end" dominant-baseline="middle" font-family="Arial" font-size="12" fill="lightgray" opacity="1">4</text><line x1="30" x2="470" y1="169.984" y2="169.984" stroke="#eeeeee" stroke-width="3" stroke-linecap="round" opacity="1"/><text x="20" y="169.984" text-anchor="end" dominant-baseline="middle" font-family="Arial" font-size="12" fill="lightgray" opacity="1">5</text><line x1="30" x2="470" y1="149" y2="149" stroke="#eeeeee" stroke-width="3" stroke-linecap="round" opacity="1"/><text x="20" y="149" text-anchor="end" dominant-baseline="middle" font-family="Arial" font-size="12" fill="lightgray" opacity="1">8</text><line x1="30" x2="470" y1="128.016" y2="128.016" stroke="#eeeeee" stroke-width="3" stroke-linecap="round" opacity="1"/><text x="20" y="128.016" text-anchor="end" dominant-baseline="middle" font-family="Arial" font-size="12" fill="lightgray" opacity="1">7</text><line x1="30" x2="470" y1="266.992" y2="266.992" stroke="#eeeeee" stroke-width="3" stroke-linecap="round" opacity="1"/><text x="20" y="266.992" text-anchor="end" dominant-baseline="middle" font-family="Arial" font-size="12" fill="lightgray" opacity="1">9</text><line x1="30" x2="470" y1="246.008" y2="246.008" stroke="#eeeeee" stroke-width="3" stroke-linecap="round" opacity="1"/><text x="20" y="246.008" text-anchor="end" dominant-baseline="middle" font-family="Arial" font-size="12" fill="lightgray" opacity="1">1</text><line x1="30" x2="470" y1="321" y2="321" stroke="#eeeeee" stroke-width="3" stroke-linecap="round" opacity="1"/><text x="20" y="321" text-anchor="end" dominant-baseline="middle" font-family="Arial" font-size="12" fill="lightgray" opacity="1">6</text><line x1="30" x2="470" y1="364" y2="364" stroke="#eeeeee" stroke-width="3" stroke-linecap="round" opacity="1"/><text x="20" y="364" text-anchor="end" dominant-baseline="middle" font-family="Arial" font-size="12" fill="lightgray" opacity="1">2</text><line x1="30" x2="470" y1="407" y2="407" stroke="#eeeeee" stroke-width="3" stroke-linecap="round" opacity="1"/><text x="20" y="407" text-anchor="end" dominant-baseline="middle" font-family="Arial" font-size="12" fill="lightgray" opacity="1">3</text><line x1="30" x2="30" y1="20" y2="63" stroke="#3d5e82" stroke-width="8" stroke-linecap="round" opacity="1"/><line x1="30" x2="30" y1="20" y2="63" stroke="#6e91b7" stroke-width="8" stroke-linecap="round" opacity="1"/><line x1="72" x2="72" y1="20" y2="169.984" stroke="#3d5e82" stroke-width="8" stroke-linecap="round" opacity="1"/><line x1="72" x2="72" y1="20" y2="169.984" stroke="#6e91b7" stroke-width="8" stroke-linecap="round" opacity="1"/><line x1="64.4" x2="64.4" y1="20" y2="149" stroke="#3d5e82" stroke-width="8" stroke-linecap="round" opacity="1"/><line x1="64.4" x2="64.4" y1="20" y2="149" stroke="#6e91b7" stroke-width="8" stroke-linecap="round" opacity="1"/><line x1="56.800000000000004" x2="56.800000000000004" y1="20" y2="128.016" stroke="#3d5e82" stroke-width="8" stroke-linecap="round" opacity="1"/><line x1="56.800000000000004" x2="56.800000000000004" y1="20" y2="128.016" stroke="#6e91b7" stroke-width="8" stroke-linecap="round" opacity="1"/><line x1="111.2" x2="111.2" y1="20" y2="266.992" stroke="#3d5e82" stroke-width="8" stroke-linecap="round" opacity="1"/><line x1="111.2" x2="111.2" y1="20" y2="266.992" stroke="#6e91b7" stroke-width="8" stroke-linecap="round" opacity="1"/><line x1="103.60000000000001" x2="103.60000000000001" y1="20" y2="246.008" stroke="#3d5e82" stroke-width="8" stroke-linecap="round" opacity="1"/><line x1="103.60000000000001" x2="103.60000000000001" y1="20" y2="246.008" stroke="#6e91b7" stroke-width="8" stroke-linecap="round" opacity="1"/><line x1="133.2" x2="133.2" y1="20" y2="321" stroke="#3d5e82" stroke-width="8" stroke-linecap="round" opacity="1"/><line x1="133.2" x2="133.2" y1="20" y2="321" stroke="#6e91b7" stroke-width="8" stroke-linecap="round" opacity="1"/><line x1="150.4" x2="150.4" y1="20" y2="364" stroke="#3d5e82" stroke-width="8" stroke-linecap="round" opacity="1"/><line x1="150.4" x2="150.4" y1="20" y2="364" stroke="#6e91b7" stroke-width="8" stroke-linecap="round" opacity="1"/><line x1="167.6" x2="167.6" y1="20" y2="407" stroke="#3d5e82" stroke-width="8" stroke-linecap="round" opacity="1"/><line x1="167.6" x2="167.6" y1="20" y2="407" stroke="#6e91b7" stroke-width="8" stroke-linecap="round" opacity="1"/><line x1="209.6" x2="209.6" y1="63" y2="169.984" stroke="#b04445" stroke-width="8" stroke-linecap="round" opacity="1"/><line x1="209.6" x2="209.6" y1="63" y2="169.984" stroke="#e67577" stroke-width="8" stroke-linecap="round" opacity="1"/><line x1="202" x2="202" y1="63" y2="149" stroke="#b04445" stroke-width="8" stroke-linecap="round" opacity="1"/><line x1="202" x2="202" y1="63" y2="149" stroke="#e67577" stroke-width="8" stroke-linecap="round" opacity="1"/><line x1="194.4" x2="194.4" y1="63" y2="128.016" stroke="#b04445" stroke-width="8" stroke-linecap="round" opacity="1"/><line x1="194.4" x2="194.4" y1="63" y2="128.016" stroke="#e67577" stroke-width="8" stroke-linecap="round" opacity="1"/><line x1="248.8" x2="248.8" y1="63" y2="266.992" stroke="#b04445" stroke-width="8" stroke-linecap="round" opacity="1"/><line x1="248.8" x2="248.8" y1="63" y2="266.992" stroke="#e67577" stroke-width="8" stroke-linecap="round" opacity="1"/><line x1="241.2" x2="241.2" y1="246.008" y2="63" stroke="#b04445" stroke-width="8" stroke-linecap="round" opacity="1"/><line x1="241.2" x2="241.2" y1="246.008" y2="63" stroke="#e67577" stroke-width="8" stroke-linecap="round" opacity="1"/><line x1="270.8" x2="270.8" y1="63" y2="321" stroke="#b04445" stroke-width="8" stroke-linecap="round" opacity="1"/><line x1="270.8" x2="270.8" y1="63" y2="321" stroke="#e67577" stroke-width="8" stroke-linecap="round" opacity="1"/><line x1="350" x2="350" y1="169.984" y2="149" stroke="#5c8f8b" stroke-width="8" stroke-linecap="round" opacity="1"/><line x1="350" x2="350" y1="169.984" y2="149" stroke="#8fc4c0" stroke-width="8" stroke-linecap="round" opacity="1"/><line x1="292.8" x2="292.8" y1="169.984" y2="128.016" stroke="#bd6f22" stroke-width="8" stroke-linecap="round" opacity="1"/><line x1="292.8" x2="292.8" y1="169.984" y2="128.016" stroke="#f4a251" stroke-width="8" stroke-linecap="round" opacity="1"/><line x1="434" x2="434" y1="169.984" y2="266.992" stroke="#ccc" stroke-width="8" stroke-linecap="round" opacity="1"/><line x1="426.40000000000003" x2="426.40000000000003" y1="246.008" y2="169.984" stroke="#ccc" stroke-width="8" stroke-linecap="round" opacity="1"/><line x1="394" x2="394" y1="149" y2="266.992" stroke="#5c8f8b" stroke-width="8" stroke-linecap="round" opacity="1"/><line x1="394" x2="394" y1="149" y2="266.992" stroke="#8fc4c0" stroke-width="8" stroke-linecap="round" opacity="1"/><line x1="386.4" x2="386.4" y1="246.008" y2="149" stroke="#5c8f8b" stroke-width="8" stroke-linecap="round" opacity="1"/><line x1="386.4" x2="386.4" y1="246.008" y2="149" stroke="#8fc4c0" stroke-width="8" stroke-linecap="round" opacity="1"/><line x1="416" x2="416" y1="321" y2="149" stroke="#5c8f8b" stroke-width="8" stroke-linecap="round" opacity="1"/><line x1="416" x2="416" y1="321" y2="149" stroke="#8fc4c0" stroke-width="8" stroke-linecap="round" opacity="1"/><line x1="346.40000000000003" x2="346.40000000000003" y1="128.016" y2="266.992" stroke="#bd6f22" stroke-width="8" stroke-linecap="round" opacity="1"/><line x1="346.40000000000003" x2="346.40000000000003" y1="128.016" y2="266.992" stroke="#f4a251" stroke-width="8" stroke-linecap="round" opacity="1"/><line x1="363.6" x2="363.6" y1="321" y2="128.016" stroke="#bd6f22" stroke-width="8" stroke-linecap="round" opacity="1"/><line x1="363.6" x2="363.6" y1="321" y2="128.016" stroke="#f4a251" stroke-width="8" stroke-linecap="round" opacity="1"/><line x1="296.6666666666667" x2="296.6666666666667" y1="235" y2="106" stroke="#bd6f22" stroke-width="8" stroke-linecap="round" opacity="0.744"/><line x1="296.6666666666667" x2="296.6666666666667" y1="235" y2="106" stroke="#f4a251" stroke-width="8" stroke-linecap="round" opacity="0.744"/><line x1="346.6666666666667" x2="346.6666666666667" y1="364" y2="106" stroke="#bd6f22" stroke-width="8" stroke-linecap="round" opacity="0.744"/><line x1="346.6666666666667" x2="346.6666666666667" y1="364" y2="106" stroke="#f4a251" stroke-width="8" stroke-linecap="round" opacity="0.744"/><line x1="430" x2="430" y1="364" y2="149" stroke="#5c8f8b" stroke-width="8" stroke-linecap="round" opacity="0.744"/><line x1="430" x2="430" y1="364" y2="149" stroke="#8fc4c0" stroke-width="8" stroke-linecap="round" opacity="0.744"/><circle cx="133.2" cy="475" r="8" fill="steelblue" opacity="0.256"/><circle cx="241.2" cy="475" r="8" fill="steelblue" opacity="0.256"/><circle cx="426.40000000000003" cy="475" r="8" fill="steelblue" opacity="0.256"/><circle cx="386.4" cy="475" r="8" fill="steelblue" opacity="0.256"/><circle cx="296.6666666666667" cy="475" r="8" fill="steelblue" opacity="0.744"/><circle cx="346.6666666666667" cy="475" r="8" fill="steelblue" opacity="0.744"/><circle cx="430" cy="475" r="8" fill="steelblue" opacity="0.744"/></svg>