<svg xmlns="http://www.w3.org/2000/svg" width="500" height="500" viewBox="0 0 500 500"><line x1="30" x2="470" y1="20" y2="20" stroke="#eeeeee" stroke-width="3" stroke-linecap="round" opacity="1"/><text x="20" y="20" text-anchor="end" dominant-baseline="middle" font-family="Arial" font-size="12" fill="lightgray" opacity="1">0</text><line x1="30" x2="470" y1="63" y2="63" stroke="#eeeeee" stroke-width="3" stroke-linecap="round" opacity="1"/><text x="20" y="63" text-anchor="end" dominant-baseline="middle" font-family="Arial" font-size="12" fill="lightgray" opacity="1">4</text><line x1="30" x2="470" y1="106" y2="106" stroke="#eeeeee" stroke-width="3" stroke-linecap="round" opacity="1"/><text x="20" y="106" text-anchor="end" dominant-baseline="middle" font-family="Arial" font-size="12" fill="lightgray" opacity="1">7</text><line x1="30" x2="470" y1="149" y2="149" stroke="#eeeeee" stroke-width="3" stroke-linecap="round" opacity="1"/><text x="20" y="149" text-anchor="end" dominant-baseline="middle" font-family="Arial" font-size="12" fill="lightgray" opacity="1">8</text><line x1="30" x2="470" y1="192" y2="192" stroke="#eeeeee" stroke-width="3" stroke-linecap="round" opacity="1"/><text x="20" y="192" text-anchor="end" dominant-baseline="middle" font-family="Arial" font-size="12" fill="lightgray" opacity="1">5</text><line x1="30" x2="470" y1="359.872" y2="359.872" stroke="#eeeeee" stroke-width="3" stroke-linecap="round" opacity="1"/><text x="20" y="359.872" text-anchor="end" dominant-baseline="middle" font-family="Arial" font-size="12" fill="lightgray" opacity="1">1</text><line x1="30" x2="470" y1="236.376" y2="236.376" stroke="#eeeeee" stroke-width="3" stroke-linecap="round" opacity="1"/><text x="20" y="236.376" text-anchor="end" dominant-baseline="middle" font-family="Arial" font-size="12" fill="lightgray" opacity="1">9</text><line x1="30" x2="470" y1="321" y2="321" stroke="#eeeeee" stroke-width="3" stroke-linecap="round" opacity="1"/><text x="20" y="321" text-anchor="end" dominant-baseline="middle" font-family="Arial" font-size="12" fill="lightgray" opacity="1">6</text><line x1="30" x2="470" y1="405.624" y2="405.624" stroke="#eeeeee" stroke-width="3" stroke-linecap="round" opacity="1"/><text x="20" y="405.624" text-anchor="end" dominant-baseline="middle" font-family="Arial" font-size="12" fill="lightgray" opacity="1">2</text><line x1="30" x2="470" y1="282.128" y2="282.128" stroke="#eeeeee" stroke-width="3" stroke-linecap="round" opacity="1"/><text x="20" y="282.128" text-anchor="end" dominant-baseline="middle" font-family="Arial" font-size="12" fill="lightgray" opacity="1">3</text><line x1="30" x2="30" y1="20" y2="63" stroke="#3d5e82" stroke-width="8" stroke-linecap="round" opacity="1"/><line x1="30" x2="30" y1="20" y2="63" stroke="#6e91b7" stroke-width="8" stroke-linecap="round" opacity="1"/><line x1="45.053333333333335" x2="45.053333333333335" y1="20" y2="106" stroke="#3d5e82" stroke-width="8" stroke-linecap="round" opacity="1"/><line x1="45.053333333333335" x2="45.053333333333335" y1="20" y2="106" stroke="#6e91b7" stroke-width="8" stroke-linecap="round" opacity="1"/><line x1="60.10666666666667" x2="60.10666666666667" y1="20" y2="149" stroke="#3d5e82" stroke-width="8" stroke-linecap="round" opacity="1"/><line x1="60.10666666666667" x2="60.10666666666667" y1="20" y2="149" stroke="#6e91b7" stroke-width="8" stroke-linecap="round" opacity="1"/><line x1="75.16" x2="75.16" y1="20" y2="192" stroke="#3d5e82" stroke-width="8" stroke-linecap="round" opacity="1"/><line x1="75.16" x2="75.16" y1="20" y2="192" stroke="#6e91b7" stroke-width="8" stroke-linecap="round" opacity="1"/><line x1="133.77333333333334" x2="133.77333333333334" y1="20" y2="359.872" stroke="#3d5e82" stroke-width="8" stroke-linecap="round" opacity="1"/><line x1="133.77333333333334" x2="133.77333333333334" y1="20" y2="359.872" stroke="#6e91b7" stroke-width="8" stroke-linecap="round" opacity="1"/><line x1="90.74666666666667" x2="90.74666666666667" y1="20" y2="236.376" stroke="#3d5e82" stroke-width="8" stroke-linecap="round" opacity="1"/><line x1="90.74666666666667" x2="90.74666666666667" y1="20" y2="236.376" stroke="#6e91b7" stroke-width="8" stroke-linecap="round" opacity="1"/><line x1="120.32" x2="120.32" y1="20" y2="321" stroke="#3d5e82" stroke-width="8" stroke-linecap="round" opacity="1"/><line x1="120.32" x2="120.32" y1="20" y2="321" stroke="#6e91b7" stroke-width="8" stroke-linecap="round" opacity="1"/><line x1="149.89333333333335" x2="149.89333333333335" y1="20" y2="405.624" stroke="#3d5e82" stroke-width="8" stroke-linecap="round" opacity="1"/><line x1="149.89333333333335" x2="149.89333333333335" y1="20" y2="405.624" stroke="#6e91b7" stroke-width="8" stroke-linecap="round" opacity="1"/><line x1="106.86666666666667" x2="106.86666666666667" y1="20" y2="282.128" stroke="#3d5e82" stroke-width="8" stroke-linecap="round" opacity="1"/><line x1="106.86666666666667" x2="106.86666666666667" y1="20" y2="282.128" stroke="#6e91b7" stroke-width="8" stroke-linecap="round" opacity="1"/><line x1="165.48" x2="165.48" y1="63" y2="106" stroke="#b04445" stroke-width="8" stroke-linecap="round" opacity="1"/><line x1="165.48" x2="165.48" y1="63" y2="106" stroke="#e67577" stroke-width="8" stroke-linecap="round" opacity="1"/><line x1="180.53333333333333" x2="180.53333333333333" y1="63" y2="149" stroke="#b04445" stroke-width="8" stroke-linecap="round" opacity="1"/><line x1="180.53333333333333" x2="180.53333333333333" y1="63" y2="149" stroke="#e67577" stroke-width="8" stroke-linecap="round" opacity="1"/><line x1="195.58666666666667" x2="195.58666666666667" y1="63" y2="192" stroke="#b04445" stroke-width="8" stroke-linecap="round" opacity="1"/><line x1="195.58666666666667" x2="195.58666666666667" y1="63" y2="192" stroke="#e67577" stroke-width="8" stroke-linecap="round" opacity="1"/><line x1="254.2" x2="254.2" y1="359.872" y2="63" stroke="#b04445" stroke-width="8" stroke-linecap="round" opacity="1"/><line x1="254.2" x2="254.2" y1="359.872" y2="63" stroke="#e67577" stroke-width="8" stroke-linecap="round" opacity="1"/><line x1="211.17333333333335" x2="211.17333333333335" y1="63" y2="236.376" stroke="#b04445" stroke-width="8" stroke-linecap="round" opacity="1"/><line x1="211.17333333333335" x2="211.17333333333335" y1="63" y2="236.376" stroke="#e67577" stroke-width="8" stroke-linecap="round" opacity="1"/><line x1="240.74666666666667" x2="240.74666666666667" y1="63" y2="321" stroke="#b04445" stroke-width="8" stroke-linecap="round" opacity="1"/><line x1="240.74666666666667" x2="240.74666666666667" y1="63" y2="321" stroke="#e67577" stroke-width="8" stroke-linecap="round" opacity="1"/><line x1="270.32" x2="270.32" y1="192" y2="106" stroke="#bd6f22" stroke-width="8" stroke-linecap="round" opacity="1"/><line x1="270.32" x2="270.32" y1="192" y2="106" stroke="#f4a251" stroke-width="8" stroke-linecap="round" opacity="1"/><line x1="296.6666666666667" x2="296.6666666666667" y1="235" y2="106" stroke="#bd6f22" stroke-width="8" stroke-linecap="round" opacity="0.03200000000000003"/><line x1="296.6666666666667" x2="296.6666666666667" y1="235" y2="106" stroke="#f4a251" stroke-width="8" stroke-linecap="round" opacity="0.03200000000000003"/><line x1="285.9066666666667" x2="285.9066666666667" y1="106" y2="236.376" stroke="#bd6f22" stroke-width="8" stroke-linecap="round" opacity="1"/><line x1="285.9066666666667" x2="285.9066666666667" y1="106" y2="236.376" stroke="#f4a251" stroke-width="8" stroke-linecap="round" opacity="1"/><line x1="315.48" x2="315.48" y1="321" y2="106" stroke="#bd6f22" stroke-width="8" stroke-linecap="round" opacity="1"/><line x1="315.48" x2="315.48" y1="321" y2="106" stroke="#f4a251" stroke-width="8" stroke-linecap="round" opacity="1"/><line x1="330.53333333333336" x2="330.53333333333336" y1="405.624" y2="106" stroke="#bd6f22" stroke-width="8" stroke-linecap="round" opacity="1"/><line x1="330.53333333333336" x2="330.53333333333336" y1="405.624" y2="106" stroke="#f4a251" stroke-width="8" stroke-linecap="round" opacity="1"/><line x1="345.58666666666664" x2="345.58666666666664" y1="192" y2="149" stroke="#5c8f8b" stroke-width="8" stroke-linecap="round" opacity="1"/><line x1="345.58666666666664" x2="345.58666666666664" y1="192" y2="149" stroke="#8fc4c0" stroke-width="8" stroke-linecap="round" opacity="1"/><line x1="389.68" x2="389.68" y1="359.872" y2="149" stroke="#5c8f8b" stroke-width="8" stroke-linecap="round" opacity="1"/><line x1="389.68" x2="389.68" y1="359.872" y2="149" stroke="#8fc4c0" stroke-width="8" stroke-linecap="round" opacity="1"/><line x1="361.17333333333335" x2="361.17333333333335" y1="149" y2="236.376" stroke="#5c8f8b" stroke-width="8" stroke-linecap="round" opacity="1"/><line x1="361.17333333333335" x2="361.17333333333335" y1="149" y2="236.376" stroke="#8fc4c0" stroke-width="8" stroke-linecap="round" opacity="1"/><line x1="376.2266666666667" x2="376.2266666666667" y1="321" y2="149" stroke="#5c8f8b" stroke-width="8" stroke-linecap="round" opacity="1"/><line x1="376.2266666666667" x2="376.2266666666667" y1="321" y2="149" stroke="#8fc4c0" stroke-width="8" stroke-linecap="round" opacity="1"/><line x1="405.8" x2="405.8" y1="405.624" y2="149" stroke="#5c8f8b" stroke-width="8" stroke-linecap="round" opacity="1"/><line x1="405.8" x2="405.8" y1="405.624" y2="149" stroke="#8fc4c0" stroke-width="8" stroke-linecap="round" opacity="1"/><line x1="435.37333333333333" x2="435.37333333333333" y1="359.872" y2="192" stroke="#ccc" stroke-width="8" stroke-linecap="round" opacity="1"/><line x1="421.38666666666666" x2="421.38666666666666" y1="192" y2="236.376" stroke="#ccc" stroke-width="8" stroke-linecap="round" opacity="1"/><line x1="225" x2="225" y1="278" y2="63" stroke="#b04445" stroke-width="8" stroke-linecap="round" opacity="0.968"/><line x1="225" x2="225" y1="278" y2="63" stroke="#e67577" stroke-width="8" stroke-linecap="round" opacity="0.968"/><line x1="300" x2="300" y1="278" y2="106" stroke="#bd6f22" stroke-width="8" stroke-linecap="round" opacity="0.968"/><line x1="300" x2="300" y1="278" y2="106" stroke="#f4a251" stroke-width="8" stroke-linecap="round" opacity="0.968"/><line x1="450" x2="450" y1="278" y2="235" stroke="#ccc" stroke-width="8" stroke-linecap="round" opacity="0.968"/><line x1="465" x2="465" y1="278" y2="321" stroke="#ccc" stroke-width="8" stroke-linecap="round" opacity="0.968"/><circle cx="296.6666666666667" cy="475" r="8" fill="steelblue" opacity="0.03200000000000003"/><circle cx="330.53333333333336" cy="475" r="8" fill="steelblue" opacity="0.03200000000000003"/><circle cx="405.8" cy="475" r="8" fill="steelblue" opacity="0.03200000000000003"/><circle cx="225" cy="475" r="8" fill="steelblue" opacity="0.968"/><circle cx="300" cy="475" r="8" fill="steelblue" opacity="0.968"/><circle cx="450" cy="475" r="8" fill="steelblue" opacity="0.968"/><circle cx="465" cy="475" r="8" fill="steelblue" opacity="0.968"/></svg>