<svg xmlns="http://www.w3.org/2000/svg" width="500" height="500" viewBox="0 0 500 500"><line x1="30" x2="470" y1="20" y2="20" stroke="#eeeeee" stroke-width="3" stroke-linecap="round" opacity="1"/><text x="20" y="20" text-anchor="end" dominant-baseline="middle" font-family="Arial" font-size="12" fill="lightgray" opacity="1">0</text><line x1="30" x2="470" y1="65.752" y2="65.752" stroke="#eeeeee" stroke-width="3" stroke-linecap="round" opacity="1"/><text x="20" y="65.752" text-anchor="end" dominant-baseline="middle" font-family="Arial" font-size="12" fill="lightgray" opacity="1">1</text><line x1="30" x2="470" y1="108.752" y2="108.752" stroke="#eeeeee" stroke-width="3" stroke-linecap="round" opacity="1"/><text x="20" y="108.752" text-anchor="end" dominant-baseline="middle" font-family="Arial" font-size="12" fill="lightgray" opacity="1">2</text><line x1="30" x2="470" y1="147.624" y2="147.624" stroke="#eeeeee" stroke-width="3" stroke-linecap="round" opacity="1"/><text x="20" y="147.624" text-anchor="end" dominant-baseline="middle" font-family="Arial" font-size="12" fill="lightgray" opacity="1">8</text><line x1="30" x2="470" y1="194.752" y2="194.752" stroke="#eeeeee" stroke-width="3" stroke-linecap="round" opacity="1"/><text x="20" y="194.752" text-anchor="end" dominant-baseline="middle" font-family="Arial" font-size="12" fill="lightgray" opacity="1">7</text><line x1="30" x2="470" y1="229.496" y2="229.496" stroke="#eeeeee" stroke-width="3" stroke-linecap="round" opacity="1"/><text x="20" y="229.496" text-anchor="end" dominant-baseline="middle" font-family="Arial" font-size="12" fill="lightgray" opacity="1">4</text><line x1="30" x2="470" y1="276.624" y2="276.624" stroke="#eeeeee" stroke-width="3" stroke-linecap="round" opacity="1"/><text x="20" y="276.624" text-anchor="end" dominant-baseline="middle" font-family="Arial" font-size="12" fill="lightgray" opacity="1">5</text><line x1="30" x2="470" y1="322.376" y2="322.376" stroke="#eeeeee" stroke-width="3" stroke-linecap="round" opacity="1"/><text x="20" y="322.376" text-anchor="end" dominant-baseline="middle" font-family="Arial" font-size="12" fill="lightgray" opacity="1">6</text><line x1="30" x2="470" y1="362.624" y2="362.624" stroke="#eeeeee" stroke-width="3" stroke-linecap="round" opacity="1"/><text x="20" y="362.624" text-anchor="end" dominant-baseline="middle" font-family="Arial" font-size="12" fill="lightgray" opacity="1">9</text><line x1="30" x2="470" y1="407" y2="407" stroke="#eeeeee" stroke-width="3" stroke-linecap="round" opacity="1"/><text x="20" y="407" text-anchor="end" dominant-baseline="middle" font-family="Arial" font-size="12" fill="lightgray" opacity="1">3</text><line x1="31.44" x2="31.44" y1="20" y2="65.752" stroke="#3d5e82" stroke-width="8" stroke-linecap="round" opacity="1"/><line x1="31.44" x2="31.44" y1="20" y2="65.752" stroke="#6e91b7" stroke-width="8" stroke-linecap="round" opacity="1"/><line x1="57.783529411764704" x2="57.783529411764704" y1="20" y2="108.752" stroke="#3d5e82" stroke-width="8" stroke-linecap="round" opacity="1"/><line x1="57.783529411764704" x2="57.783529411764704" y1="20" y2="108.752" stroke="#6e91b7" stroke-width="8" stroke-linecap="round" opacity="1"/><line x1="81.96705882352941" x2="81.96705882352941" y1="20" y2="147.624" stroke="#3d5e82" stroke-width="8" stroke-linecap="round" opacity="1"/><line x1="81.96705882352941" x2="81.96705882352941" y1="20" y2="147.624" stroke="#6e91b7" stroke-width="8" stroke-linecap="round" opacity="1"/><line x1="110.47058823529412" x2="110.47058823529412" y1="20" y2="194.752" stroke="#3d5e82" stroke-width="8" stroke-linecap="round" opacity="1"/><line x1="110.47058823529412" x2="110.47058823529412" y1="20" y2="194.752" stroke="#6e91b7" stroke-width="8" stroke-linecap="round" opacity="1"/><line x1="132.49411764705883" x2="132.49411764705883" y1="20" y2="229.496" stroke="#3d5e82" stroke-width="8" stroke-linecap="round" opacity="1"/><line x1="132.49411764705883" x2="132.49411764705883" y1="20" y2="229.496" stroke="#6e91b7" stroke-width="8" stroke-linecap="round" opacity="1"/><line x1="160.99764705882353" x2="160.99764705882353" y1="20" y2="276.624" stroke="#3d5e82" stroke-width="8" stroke-linecap="round" opacity="1"/><line x1="160.99764705882353" x2="160.99764705882353" y1="20" y2="276.624" stroke="#6e91b7" stroke-width="8" stroke-linecap="round" opacity="1"/><line x1="188.78117647058824" x2="188.78117647058824" y1="20" y2="322.376" stroke="#3d5e82" stroke-width="8" stroke-linecap="round" opacity="1"/><line x1="188.78117647058824" x2="188.78117647058824" y1="20" y2="322.376" stroke="#6e91b7" stroke-width="8" stroke-linecap="round" opacity="1"/><line x1="213.68470588235294" x2="213.68470588235294" y1="20" y2="362.624" stroke="#3d5e82" stroke-width="8" stroke-linecap="round" opacity="1"/><line x1="213.68470588235294" x2="213.68470588235294" y1="20" y2="362.624" stroke="#6e91b7" stroke-width="8" stroke-linecap="round" opacity="1"/><line x1="240.74823529411762" x2="240.74823529411762" y1="20" y2="407" stroke="#3d5e82" stroke-width="8" stroke-linecap="round" opacity="1"/><line x1="240.74823529411762" x2="240.74823529411762" y1="20" y2="407" stroke="#6e91b7" stroke-width="8" stroke-linecap="round" opacity="1"/><line x1="271.4117647058824" x2="271.4117647058824" y1="65.752" y2="147.624" stroke="#5c8f8b" stroke-width="8" stroke-linecap="round" opacity="1"/><line x1="271.4117647058824" x2="271.4117647058824" y1="65.752" y2="147.624" stroke="#8fc4c0" stroke-width="8" stroke-linecap="round" opacity="1"/><line x1="294.70588235294116" x2="294.70588235294116" y1="63" y2="192" stroke="#5c8f8b" stroke-width="8" stroke-linecap="round" opacity="0.968"/><line x1="294.70588235294116" x2="294.70588235294116" y1="63" y2="192" stroke="#8fc4c0" stroke-width="8" stroke-linecap="round" opacity="0.968"/><line x1="319.0588235294117" x2="319.0588235294117" y1="65.752" y2="229.496" stroke="#b04445" stroke-width="8" stroke-linecap="round" opacity="1"/><line x1="319.0588235294117" x2="319.0588235294117" y1="65.752" y2="229.496" stroke="#e67577" stroke-width="8" stroke-linecap="round" opacity="1"/><line x1="350.44235294117647" x2="350.44235294117647" y1="65.752" y2="276.624" stroke="#ccc" stroke-width="8" stroke-linecap="round" opacity="1"/><line x1="374.6258823529412" x2="374.6258823529412" y1="108.752" y2="147.624" stroke="#5c8f8b" stroke-width="8" stroke-linecap="round" opacity="1"/><line x1="374.6258823529412" x2="374.6258823529412" y1="108.752" y2="147.624" stroke="#8fc4c0" stroke-width="8" stroke-linecap="round" opacity="1"/><line x1="402.40941176470585" x2="402.40941176470585" y1="108.752" y2="194.752" stroke="#ccc" stroke-width="8" stroke-linecap="round" opacity="1"/><line x1="427.0588235294117" x2="427.0588235294117" y1="106" y2="321" stroke="#5c8f8b" stroke-width="8" stroke-linecap="round" opacity="0.968"/><line x1="427.0588235294117" x2="427.0588235294117" y1="106" y2="321" stroke="#8fc4c0" stroke-width="8" stroke-linecap="round" opacity="0.968"/><line x1="452.21647058823527" x2="452.21647058823527" y1="147.624" y2="362.624" stroke="#5c8f8b" stroke-width="8" stroke-linecap="round" opacity="1"/><line x1="452.21647058823527" x2="452.21647058823527" y1="147.624" y2="362.624" stroke="#8fc4c0" stroke-width="8" stroke-linecap="round" opacity="1"/><line x1="232.5" x2="232.5" y1="63" y2="106" stroke="#b04445" stroke-width="8" stroke-linecap="round" opacity="0.03200000000000001"/><line x1="232.5" x2="232.5" y1="63" y2="106" stroke="#e67577" stroke-width="8" stroke-linecap="round" opacity="0.03200000000000001"/><line x1="277.5" x2="277.5" y1="63" y2="235" stroke="#b04445" stroke-width="8" stroke-linecap="round" opacity="0.03200000000000001"/><line x1="277.5" x2="277.5" y1="63" y2="235" stroke="#e67577" stroke-width="8" stroke-linecap="round" opacity="0.03200000000000001"/><line x1="300" x2="300" y1="63" y2="278" stroke="#b04445" stroke-width="8" stroke-linecap="round" opacity="0.03200000000000001"/><line x1="300" x2="300" y1="63" y2="278" stroke="#e67577" stroke-width="8" stroke-linecap="round" opacity="0.03200000000000001"/><line x1="322.5" x2="322.5" y1="63" y2="321" stroke="#b04445" stroke-width="8" stroke-linecap="round" opacity="0.03200000000000001"/><line x1="322.5" x2="322.5" y1="63" y2="321" stroke="#e67577" stroke-width="8" stroke-linecap="round" opacity="0.03200000000000001"/><line x1="345" x2="345" y1="63" y2="364" stroke="#b04445" stroke-width="8" stroke-linecap="round" opacity="0.03200000000000001"/><line x1="345" x2="345" y1="63" y2="364" stroke="#e67577" stroke-width="8" stroke-linecap="round" opacity="0.03200000000000001"/><circle cx="81.96705882352941" cy="475" r="8" fill="steelblue" opacity="0.968"/><circle cx="374.6258823529412" cy="475" r="8" fill="steelblue" opacity="0.968"/><circle cx="452.21647058823527" cy="475" r="8" fill="steelblue" opacity="0.968"/><circle cx="232.5" cy="475" r="8" fill="steelblue" opacity="0.03200000000000001"/><circle cx="277.5" cy="475" r="8" fill="steelblue" opacity="0.03200000000000001"/><circle cx="300" cy="475" r="8" fill="steelblue" opacity="0.03200000000000001"/><circle cx="322.5" cy="475" r="8" fill="steelblue" opacity="0.03200000000000001"/><circle cx="345" cy="475" r="8" fill="steelblue" opacity="0.03200000000000001"/></svg>